<svg xmlns="http://www.w3.org/2000/svg" version="1.1" xmlns:xlink="http://www.w3.org/1999/xlink" xmlns:svgjs="http://svgjs.dev/svgjs" width="2000" height="2000" viewBox="0 0 2000 2000"><g transform="matrix(1,0,0,1,-0.28443113772425477,-0.28443113772459583)"><svg viewBox="0 0 334 334" data-background-color="#ffffff" preserveAspectRatio="xMidYMid meet" height="2000" width="2000" xmlns="http://www.w3.org/2000/svg" xmlns:xlink="http://www.w3.org/1999/xlink"><g id="tight-bounds" transform="matrix(1,0,0,1,0.04749999999998522,0.04750000000001364)"><svg viewBox="0 0 333.90454557049503 333.90454557049503" height="333.90454557049503" width="333.90454557049503"><g><svg></svg></g><g><svg viewBox="0 0 333.90454557049503 333.90454557049503" height="333.90454557049503" width="333.90454557049503"><g><path d="M0 166.952c0-92.205 74.747-166.952 166.952-166.952 92.205 0 166.952 74.747 166.953 166.952 0 92.205-74.747 166.952-166.953 166.953-92.205 0-166.952-74.747-166.952-166.953zM166.952 320.577c84.845 0 153.625-68.78 153.625-153.625 0-84.845-68.78-153.625-153.625-153.625-84.845 0-153.625 68.78-153.625 153.625 0 84.845 68.78 153.625 153.625 153.625z" data-fill-palette-color="tertiary" fill="#ee3e38" stroke="transparent"></path><ellipse rx="160.27418187383762" ry="160.27418187383762" cx="166.95227278524752" cy="166.95227278524752" fill="#ee3e38" stroke="transparent" stroke-width="0" fill-opacity="1" data-fill-palette-color="tertiary"></ellipse></g><g transform="matrix(1,0,0,1,104.74178680707686,71.17305217166896)"><svg viewBox="0 0 124.42097195634129 191.55844122715712" height="191.55844122715712" width="124.42097195634129"><g><svg viewBox="0 0 124.42097195634129 191.55844122715712" height="191.55844122715712" width="124.42097195634129"><g><svg viewBox="0 0 160.27677307798973 246.76200750554983" height="191.55844122715712" width="124.42097195634129"><g><svg viewBox="0 0 160.27677307798973 246.76200750554983" height="246.76200750554983" width="160.27677307798973"><g id="textblocktransform"><svg viewBox="0 0 160.27677307798973 246.76200750554983" height="246.76200750554983" width="160.27677307798973" id="textblock"><g><svg viewBox="0 0 160.27677307798973 190.3746100603733" height="190.3746100603733" width="160.27677307798973"><g transform="matrix(1,0,0,1,0,0)"><svg width="160.27677307798973" viewBox="2.755000114440918 -35.830406188964844 30.22357177734375 35.903934478759766" height="190.3746100603733" data-palette-color="#ffffff"><path d="M5.05-5.85L5.05-5.85Q3.45-8.1 3-12.35L3-12.35Q2.65-15.35 2.8-19.75L2.8-19.75Q2.9-22.15 3.25-27.05L3.25-27.05Q3.55-31.15 3.55-32.4L3.55-32.4Q3.6-33.85 4.63-34.85 5.65-35.85 7.1-35.83 8.55-35.8 9.55-34.77 10.55-33.75 10.53-32.3 10.5-30.85 10.2-26.55L10.2-26.55Q9.85-21.35 9.8-19.55L9.8-19.55Q9.65-15.6 9.93-13.13 10.2-10.65 10.75-9.85L10.75-9.85Q12.15-7.85 14.65-7.2 17.15-6.55 19.6-7.35L19.6-7.35Q22.1-8.2 23.5-10.25L23.5-10.25Q25.85-13.65 26-20.1L26-20.1Q26.05-22.4 25.85-26.15L25.85-26.15Q25.55-31.15 25.5-32.25L25.5-32.25Q25.5-33.7 26.48-34.75 27.45-35.8 28.9-35.83 30.35-35.85 31.4-34.88 32.45-33.9 32.5-32.45L32.5-32.45Q32.5-31.45 32.8-26.55L32.8-26.55Q33.05-22.5 32.95-19.9L32.95-19.9Q32.75-11.4 29.3-6.35L29.3-6.35Q27.35-3.5 24.1-1.83 20.85-0.15 17.43 0.05 14 0.25 10.6-1.25 7.2-2.75 5.05-5.85L5.05-5.85Z" opacity="1" transform="matrix(1,0,0,1,0,0)" fill="#ffffff" class="wordmark-text-0" data-fill-palette-color="quaternary" id="text-0"></path></svg></g></svg></g><g transform="matrix(1,0,0,1,0,235.317486504986)"><svg viewBox="0 0 160.27677307798973 11.44452100056383" height="11.44452100056383" width="160.27677307798973"><g transform="matrix(1,0,0,1,0,0)"><svg width="160.27677307798973" viewBox="1.2000000476837158 -31.549999237060547 449.5 32.099998474121094" height="11.44452100056383" data-palette-color="#ffffff"><path d="M9.9-15.23Q9.9-10.8 10.78-8.93 11.65-7.05 13.65-7.05 15.65-7.05 19.3-8L19.3-8 20.6-0.95Q16.65 0.5 12.65 0.5L12.65 0.5Q6.65 0.5 3.93-3.48 1.2-7.45 1.2-15.33 1.2-23.2 4.05-27.38 6.9-31.55 13.35-31.55L13.35-31.55Q17.15-31.55 20.6-29.95L20.6-29.95 19.25-22.2Q15.35-23.5 13.8-23.5L13.8-23.5Q11.6-23.5 10.75-21.58 9.9-19.65 9.9-15.23ZM24.57-27.8Q27.45-31.55 34-31.55 40.55-31.55 43.37-27.85 46.2-24.15 46.2-15.83 46.2-7.5 43.3-3.5 40.4 0.5 33.9 0.5 27.4 0.5 24.55-3.45 21.7-7.4 21.7-15.73 21.7-24.05 24.57-27.8ZM37.6-15.8Q37.6-20.4 36.87-22.03 36.15-23.65 33.92-23.65 31.7-23.65 31.05-22.03 30.4-20.4 30.4-15.85L30.4-15.85 30.4-14.65Q30.4-9.8 31.12-8.28 31.85-6.75 34.07-6.75 36.3-6.75 36.95-8.2 37.6-9.65 37.6-14.2L37.6-14.2 37.6-15.8ZM72.7-16.2L72.7-16.2Q72.7 0 59.9 0L59.9 0 49.6 0 49.6-31.05 60.1-31.05Q66.95-31.05 69.82-27.23 72.7-23.4 72.7-16.2ZM59.75-7.2Q62.4-7.2 63.17-9.08 63.95-10.95 63.95-15.38 63.95-19.8 63.12-21.65 62.3-23.5 59.6-23.5L59.6-23.5 58.1-23.5 58.1-7.2 59.75-7.2ZM93.19-7L92.69 0 75.89 0 75.89-31.05 93.19-31.05 92.69-23.4 84.44-23.4 84.44-18.75 91.59-18.75 91.59-12.15 84.44-12.15 84.44-7 93.19-7ZM97.64-3.4L97.64-3.4Q97.64-5.4 98.69-6.38 99.74-7.35 102.04-7.35 104.34-7.35 105.39-6.38 106.44-5.4 106.44-3.3L106.44-3.3Q106.44 0.55 102.04 0.55 97.64 0.55 97.64-3.4ZM129.09-15.23Q129.09-10.8 129.96-8.93 130.84-7.05 132.84-7.05 134.84-7.05 138.49-8L138.49-8 139.79-0.95Q135.84 0.5 131.84 0.5L131.84 0.5Q125.84 0.5 123.11-3.48 120.39-7.45 120.39-15.33 120.39-23.2 123.24-27.38 126.09-31.55 132.54-31.55L132.54-31.55Q136.34-31.55 139.79-29.95L139.79-29.95 138.44-22.2Q134.54-23.5 132.99-23.5L132.99-23.5Q130.79-23.5 129.94-21.58 129.09-19.65 129.09-15.23ZM163.13-21.2L163.13-21.2Q163.13-18.4 162.28-16.55 161.43-14.7 159.63-13.2L159.63-13.2 163.78 0 154.53 0 151.43-11.2 150.28-11.2 150.28 0 141.88 0 141.88-31.05 153.48-31.05Q158.48-31.05 160.81-28.7 163.13-26.35 163.13-21.2ZM151.58-16.45Q152.88-16.45 153.43-17.2 153.98-17.95 153.98-19.93 153.98-21.9 153.43-22.68 152.88-23.45 151.63-23.45L151.63-23.45 150.28-23.45 150.28-16.45 151.58-16.45ZM183.88-7L183.38 0 166.58 0 166.58-31.05 183.88-31.05 183.38-23.4 175.13-23.4 175.13-18.75 182.28-18.75 182.28-12.15 175.13-12.15 175.13-7 183.88-7ZM203.38-31.05L209.08 0 200.73 0 199.78-4.9 193.88-4.9 192.93 0 184.98 0 190.68-31.05 203.38-31.05ZM194.98-10.75L198.83-10.75 197.08-21.85 196.73-21.85 194.98-10.75ZM230.22-31.05L229.72-23.5 223.92-23.5 223.92 0 215.38 0 215.38-23.5 209.22-23.5 209.72-31.05 230.22-31.05ZM249.47-7L248.97 0 232.17 0 232.17-31.05 249.47-31.05 248.97-23.4 240.72-23.4 240.72-18.75 247.87-18.75 247.87-12.15 240.72-12.15 240.72-7 249.47-7ZM253.92-3.4L253.92-3.4Q253.92-5.4 254.97-6.38 256.02-7.35 258.32-7.35 260.62-7.35 261.67-6.38 262.72-5.4 262.72-3.3L262.72-3.3Q262.72 0.55 258.32 0.55 253.92 0.55 253.92-3.4ZM285.37-15.23Q285.37-10.8 286.24-8.93 287.12-7.05 289.12-7.05 291.12-7.05 294.77-8L294.77-8 296.07-0.95Q292.12 0.5 288.12 0.5L288.12 0.5Q282.12 0.5 279.39-3.48 276.67-7.45 276.67-15.33 276.67-23.2 279.52-27.38 282.37-31.55 288.82-31.55L288.82-31.55Q292.62-31.55 296.07-29.95L296.07-29.95 294.72-22.2Q290.82-23.5 289.27-23.5L289.27-23.5Q287.07-23.5 286.22-21.58 285.37-19.65 285.37-15.23ZM300.04-27.8Q302.91-31.55 309.46-31.55 316.01-31.55 318.84-27.85 321.66-24.15 321.66-15.83 321.66-7.5 318.76-3.5 315.86 0.5 309.36 0.5 302.86 0.5 300.01-3.45 297.16-7.4 297.16-15.73 297.16-24.05 300.04-27.8ZM313.06-15.8Q313.06-20.4 312.34-22.03 311.61-23.65 309.39-23.65 307.16-23.65 306.51-22.03 305.86-20.4 305.86-15.85L305.86-15.85 305.86-14.65Q305.86-9.8 306.59-8.28 307.31-6.75 309.54-6.75 311.76-6.75 312.41-8.2 313.06-9.65 313.06-14.2L313.06-14.2 313.06-15.8ZM347.71-31.05L347.71 0 339.51 0 333.06-14.45 332.66-14.45 332.66 0 325.06 0 325.06-31.05 333.51-31.05 339.66-16.15 340.06-16.15 340.06-31.05 347.71-31.05ZM374.76-31.05L374.76 0 366.56 0 360.11-14.45 359.71-14.45 359.71 0 352.11 0 352.11-31.05 360.56-31.05 366.71-16.15 367.11-16.15 367.11-31.05 374.76-31.05ZM396.46-7L395.96 0 379.16 0 379.16-31.05 396.46-31.05 395.96-23.4 387.71-23.4 387.71-18.75 394.86-18.75 394.86-12.15 387.71-12.15 387.71-7 396.46-7ZM407.05-15.23Q407.05-10.8 407.93-8.93 408.8-7.05 410.8-7.05 412.8-7.05 416.45-8L416.45-8 417.75-0.95Q413.8 0.5 409.8 0.5L409.8 0.5Q403.8 0.5 401.08-3.48 398.35-7.45 398.35-15.33 398.35-23.2 401.2-27.38 404.05-31.55 410.5-31.55L410.5-31.55Q414.3-31.55 417.75-29.95L417.75-29.95 416.4-22.2Q412.5-23.5 410.95-23.5L410.95-23.5Q408.75-23.5 407.9-21.58 407.05-19.65 407.05-15.23ZM438.4-31.05L437.9-23.5 432.1-23.5 432.1 0 423.55 0 423.55-23.5 417.4-23.5 417.9-31.05 438.4-31.05ZM441.9-3.4L441.9-3.4Q441.9-5.4 442.95-6.38 444-7.35 446.3-7.35 448.6-7.35 449.65-6.38 450.7-5.4 450.7-3.3L450.7-3.3Q450.7 0.55 446.3 0.55 441.9 0.55 441.9-3.4Z" opacity="1" transform="matrix(1,0,0,1,0,0)" fill="#ffffff" class="slogan-text-1" data-fill-palette-color="quaternary" id="text-1"></path></svg></g></svg></g></svg></g></svg></g><g></g></svg></g></svg></g></svg></g></svg></g><defs></defs></svg><rect width="333.90454557049503" height="333.90454557049503" fill="none" stroke="none" visibility="hidden"></rect></g></svg></g></svg>